<svg width="54" height="66" viewBox="0 0 54 66" fill="none" xmlns="http://www.w3.org/2000/svg">
<path d="M15.1565 19.6225C15.1565 19.6225 15.0669 12.4594 18.4696 8.58874C22.029 4.51782 38.5498 4.51782 42.736 4.51782" stroke="#A98C64" stroke-width="2" stroke-miterlimit="10" stroke-linecap="round"/>
<path d="M38.2363 13.0823H42.7359" stroke="#A98C64" stroke-width="2" stroke-miterlimit="10" stroke-linecap="round"/>
<path d="M52.7647 1.00293H43.8775C43.2507 1.00293 42.7358 1.51457 42.7358 2.13745V15.24C42.7358 15.8629 43.2507 16.3745 43.8775 16.3745H52.7647" stroke="#A98C64" stroke-width="2" stroke-miterlimit="10" stroke-linecap="round"/>
<path d="M38.2367 13.0823C37.0502 13.0823 35.9981 13.7719 35.5504 14.8619C34.9235 16.4191 33.4237 18.6436 29.9539 20.0451C28.857 20.49 27.7824 20.9794 26.7975 21.6023C25.8125 22.2252 24.5365 23.204 23.3724 23.9825C22.074 24.8279 21.2681 24.9169 20.4398 23.9825C20.4175 23.9603 20.4175 23.9381 20.3951 23.9158C19.7235 23.115 19.8802 21.936 20.7085 21.3131C22.074 20.2898 23.9768 18.9106 25.7901 16.4413C26.3945 15.6405 25.8125 14.4837 24.7603 14.4837C24.7603 14.4837 22.8351 14.328 21.3353 16.0854" stroke="#A98C64" stroke-width="2" stroke-miterlimit="10" stroke-linecap="round"/>
<path d="M28.297 23.3374C28.9238 24.5831 29.2596 25.9846 29.2596 27.4751C29.2596 29.1435 28.8119 30.7229 28.0508 32.0799" stroke="#A98C64" stroke-width="2" stroke-miterlimit="10" stroke-linecap="round"/>
<path d="M11.6197 31.9242C10.9034 30.6117 10.478 29.0767 10.478 27.4751C10.478 19.8894 18.7608 16.8195 23.4395 19.0663" stroke="#A98C64" stroke-width="2" stroke-miterlimit="10" stroke-linecap="round"/>
<path d="M13.0078 27.4749H26.7528" stroke="#A98C64" stroke-width="2" stroke-miterlimit="10" stroke-linecap="round"/>
<path d="M29.4388 27.4749H34.5651C35.4606 27.4749 36.1993 28.1645 36.2665 29.0543L38.908 61.5994C39.0647 63.4457 37.5872 65.0029 35.7292 65.0029H12.6941H27.2449H4.18741C2.32938 65.0029 0.874289 63.4235 1.0086 61.5994L3.65015 29.0543C3.7173 28.1645 4.45604 27.4749 5.35148 27.4749H10.4779" stroke="#A98C64" stroke-width="2" stroke-miterlimit="10" stroke-linecap="round"/>
<path d="M20.2383 23.7154C20.2383 23.7154 16.9252 24.0936 15.873 21.4019" stroke="#A98C64" stroke-width="2" stroke-miterlimit="10" stroke-linecap="round"/>
<path d="M13.0073 36.8627C14.4539 36.8627 15.6265 35.6974 15.6265 34.2599C15.6265 32.8225 14.4539 31.6572 13.0073 31.6572C11.5608 31.6572 10.3882 32.8225 10.3882 34.2599C10.3882 35.6974 11.5608 36.8627 13.0073 36.8627Z" stroke="#A98C64" stroke-width="2" stroke-miterlimit="10" stroke-linecap="round"/>
<path d="M26.4839 36.8627C27.9304 36.8627 29.1031 35.6974 29.1031 34.2599C29.1031 32.8225 27.9304 31.6572 26.4839 31.6572C25.0374 31.6572 23.8647 32.8225 23.8647 34.2599C23.8647 35.6974 25.0374 36.8627 26.4839 36.8627Z" stroke="#A98C64" stroke-width="2" stroke-miterlimit="10" stroke-linecap="round"/>
<path d="M20.238 41.0447L28.3641 45.6272L20.238 50.2765L12.1343 45.6272L20.238 41.0447Z" stroke="#A98C64" stroke-width="2" stroke-miterlimit="10" stroke-linecap="round" stroke-linejoin="round"/>
<path d="M20.238 59.5753L12.1343 54.926V45.6274" stroke="#A98C64" stroke-width="2" stroke-miterlimit="10" stroke-linecap="round"/>
<path d="M20.2383 59.5753L28.3644 54.926V45.6274" stroke="#A98C64" stroke-width="2" stroke-miterlimit="10" stroke-linecap="round"/>
<path d="M20.2383 50.2764V56.4606" stroke="#A98C64" stroke-width="2" stroke-miterlimit="10" stroke-linecap="round"/>
</svg>
