<svg width="61" height="67" viewBox="0 0 61 67" fill="none" xmlns="http://www.w3.org/2000/svg">
<path d="M28.6085 46.2682H23.4019H9.2217C2.71342 46.2682 -1.19155 37.4115 2.31898 30.6561C3.99535 27.4355 6.57894 24.2148 10.5234 21.4655V18.0289C10.5234 17.4005 11.0361 16.8899 11.6672 16.8899H35.1365C35.7676 16.8899 36.2804 17.4005 36.2804 18.0289V21.4459C40.2248 24.1952 42.8084 27.4355 44.4848 30.6364" stroke="#A98C64" stroke-width="2" stroke-miterlimit="10" stroke-linecap="round" stroke-linejoin="round"/>
<path d="M5.13916 22.9778V18.9127C5.13916 14.8084 8.49191 11.47 12.6138 11.47H34.2095C38.3314 11.47 41.6842 14.8084 41.6842 18.9127V22.9778" stroke="#A98C64" stroke-width="2" stroke-miterlimit="10" stroke-linecap="round" stroke-linejoin="round"/>
<path d="M24.1117 4.3021C24.1117 6.12843 22.6325 7.60127 20.7984 7.60127C18.9642 7.60127 17.4653 6.12843 17.4653 4.3021C17.4653 2.47577 18.9445 1.00293 20.7786 1.00293C22.6128 1.00293 24.1117 2.47577 24.1117 4.3021Z" stroke="#A98C64" stroke-width="2" stroke-miterlimit="10" stroke-linecap="round" stroke-linejoin="round"/>
<path d="M26.0249 1.00293C27.8591 1.00293 29.3382 2.47577 29.3382 4.3021C29.3382 6.12843 27.8591 7.60127 26.0249 7.60127" stroke="#A98C64" stroke-width="2" stroke-miterlimit="10" stroke-linecap="round" stroke-linejoin="round"/>
<path d="M39.8896 49.1158L44.7413 53.4362L51.7426 44.9133" stroke="#A98C64" stroke-width="2" stroke-miterlimit="10" stroke-linecap="round"/>
<path d="M59.3948 37.2938C50.7565 38.315 45.3921 33.3662 45.3921 33.3662C45.3921 33.3662 40.0277 38.315 31.3894 37.2938C31.3894 37.2938 28.6875 60.0934 45.3921 65.0029C62.0967 60.0738 59.3948 37.2938 59.3948 37.2938Z" stroke="#A98C64" stroke-width="2" stroke-miterlimit="10" stroke-linecap="round"/>
</svg>
