<svg width="49" height="66" viewBox="0 0 49 66" fill="none" xmlns="http://www.w3.org/2000/svg">
<path d="M32.4102 43.2356C32.4102 43.2356 40.6382 47.6846 43.8162 50.2454C44.5781 50.8531 45.2093 51.591 45.7318 52.4156C46.6895 53.9565 47.1466 55.7578 47.1466 57.5591V65.0029H24.1169H24.0298H1V57.5591C1 55.7578 1.45711 53.9565 2.41487 52.4156C2.93729 51.591 3.56854 50.8531 4.33039 50.2454C7.53018 47.6846 15.7364 43.2356 15.7364 43.2356" stroke="#A98C64" stroke-width="2" stroke-miterlimit="10" stroke-linecap="round"/>
<path d="M35.1528 29.1289C35.4575 30.4093 35.6317 31.7766 35.6317 33.1872C35.6317 41.1085 30.4293 47.5541 24.0297 47.5541C17.6301 47.5541 12.4277 41.1302 12.4277 33.1872C12.4277 31.7766 12.6019 30.4093 12.9066 29.1289" stroke="#A98C64" stroke-width="2" stroke-miterlimit="10" stroke-linecap="round"/>
<path d="M11.9708 6.92771C9.53282 7.14473 7.39962 9.07623 6.6813 11.3984C5.98475 13.7205 6.8119 16.4333 8.72743 17.9742C9.98993 18.9942 11.5572 19.6669 13.168 19.9925V26.1342L13.2115 26.1559C20.2641 28.3912 27.8173 28.3912 34.8699 26.1559L34.9135 26.1342V19.9708C36.5242 19.6452 38.0915 18.9725 39.354 17.9524C41.2477 16.4333 42.0967 13.6988 41.4001 11.3767C40.6818 9.05453 38.5486 7.12303 36.1107 6.90601" stroke="#A98C64" stroke-width="2" stroke-miterlimit="10" stroke-linecap="round"/>
<path d="M13.7993 11.0945C12.6892 10.0094 12.0361 8.62042 12.0361 7.10126C12.0361 3.73741 15.2795 1.00293 19.2629 1.00293C23.2463 1.00293 26.4896 3.73741 26.4896 7.10126" stroke="#A98C64" stroke-width="2" stroke-miterlimit="10" stroke-linecap="round"/>
<path d="M34.2823 11.0945C35.3924 10.0311 36.0455 8.62042 36.0455 7.10126C36.0455 3.73741 32.8021 1.00293 28.8187 1.00293C28.2745 1.00293 27.7521 1.04633 27.2515 1.15485" stroke="#A98C64" stroke-width="2" stroke-miterlimit="10" stroke-linecap="round"/>
<path d="M24.3998 56.4737C24.3998 56.669 24.2256 56.8426 24.0297 56.8426C23.8338 56.8426 23.6597 56.669 23.6597 56.4737C23.6597 56.2784 23.8338 56.1047 24.0297 56.1047C24.2474 56.1047 24.3998 56.2784 24.3998 56.4737Z" stroke="#A98C64" stroke-width="2" stroke-miterlimit="10" stroke-linecap="round"/>
<path d="M24.3998 60.8577C24.3998 61.053 24.2256 61.2266 24.0297 61.2266C23.8338 61.2266 23.6597 61.053 23.6597 60.8577C23.6597 60.6624 23.8338 60.4888 24.0297 60.4888C24.2474 60.4888 24.3998 60.6624 24.3998 60.8577Z" stroke="#A98C64" stroke-width="2" stroke-miterlimit="10" stroke-linecap="round"/>
<path d="M30.9085 50.0718L27.5563 53.4139L24.03 50.6577L20.5255 53.4139L17.1733 50.0718" stroke="#A98C64" stroke-width="2" stroke-miterlimit="10" stroke-linecap="round" stroke-linejoin="round"/>
</svg>
