<svg width="71" height="66" viewBox="0 0 71 66" fill="none" xmlns="http://www.w3.org/2000/svg">
<path d="M26.3071 58.2301H12.7754V43.8477" stroke="white" stroke-width="2" stroke-miterlimit="10" stroke-linecap="round"/>
<path d="M27.4321 59.6053C27.4321 59.6053 24.605 56.6078 23.5345 52.9228C22.0798 47.9453 21.3936 43.8203 17.3862 39.7778" stroke="white" stroke-width="2" stroke-miterlimit="10" stroke-linecap="round"/>
<path d="M38.9873 57.3228C43.0221 61.6677 43.9004 62.9602 45.3826 62.6852C47.0569 62.3552 47.249 60.5127 47.249 58.9452" stroke="white" stroke-width="2" stroke-miterlimit="10" stroke-linecap="round"/>
<path d="M33.498 58.7803C37.5328 63.1253 38.4112 64.4178 39.8933 64.1428C41.5677 63.8128 41.7598 61.9703 41.7598 60.4028" stroke="white" stroke-width="2" stroke-miterlimit="10" stroke-linecap="round"/>
<path d="M27.4321 59.6055C31.4669 63.9504 32.3453 65.2429 33.8274 64.9679C35.5017 64.6379 35.6939 62.7955 35.6939 61.228" stroke="white" stroke-width="2" stroke-miterlimit="10" stroke-linecap="round"/>
<path d="M53.3701 58.2302H69.921V1.00293H16.6177C14.5042 1.00293 12.775 2.73542 12.775 4.85292C12.775 5.87041 13.1868 6.86041 13.9004 7.57541L30.4239 24.1303C31.1375 24.8453 31.1375 25.9728 30.4239 26.6878L16.3432 40.7953C15.6296 41.5103 14.5042 41.5103 13.7906 40.7953L1 27.9803" stroke="white" stroke-width="2" stroke-miterlimit="10" stroke-linecap="round"/>
<path d="M29.2437 27.8979L33.4157 32.0779C39.8933 38.5679 43.5988 38.5954 48.6491 39.0904C48.6491 39.0904 52.4369 39.6679 54.77 42.3629C56.7736 44.7004 53.9191 48.0554 51.339 46.4054C51.092 46.2404 50.8449 46.0754 50.5979 45.8554C49.4177 44.8654 47.8257 44.4804 46.3435 44.9754C44.4496 45.6079 43.9007 48.0004 45.3005 49.4029L45.9044 50.0079L52.6565 56.7728C53.6172 57.7353 53.6172 59.3303 52.6565 60.2928C51.6958 61.2553 50.1039 61.2553 49.1432 60.2928L43.8458 54.9853" stroke="white" stroke-width="2" stroke-miterlimit="10" stroke-linecap="round"/>
<path d="M62.7123 20.1011C62.7123 14.4948 58.3839 8.90918 50.5104 8.90918C42.637 8.90918 38.3086 14.4948 38.3086 20.1011" stroke="white" stroke-width="2" stroke-miterlimit="10" stroke-linecap="round"/>
<path d="M36 22.6772H65" stroke="white" stroke-width="2" stroke-miterlimit="10" stroke-linecap="round"/>
<path d="M38.3086 22.6772C38.3086 24.759 39.9781 26.9025 42.0598 26.9025H50.5104H58.961C61.0428 26.9025 62.7123 24.759 62.7123 22.6772" stroke="white" stroke-width="2" stroke-miterlimit="10" stroke-linecap="round"/>
<path d="M50.5103 8.92972V6.00293" stroke="white" stroke-width="2" stroke-miterlimit="10" stroke-linecap="round"/>
</svg>
