<svg width="359" height="289" viewBox="0 0 359 289" fill="none" xmlns="http://www.w3.org/2000/svg">
<g clip-path="url(#clip0_801_1034)">
<path d="M143.059 218.241L144.713 215.524C143.512 214.756 141.004 212.526 135.901 206.286C129.691 198.703 123.107 189.436 123.042 189.34C117.803 183.964 123.042 173.73 123.1 173.626L143.591 141.084C143.857 140.671 144.209 140.619 144.461 140.619C144.648 140.627 145.101 140.7 145.367 141.21C150.728 151.466 140.35 166.752 140.242 166.907C135.894 174.97 136.691 187.641 144.655 193.165C147.322 195.011 150.585 196.199 154.933 196.908C169.078 199.234 179.881 193.955 191.309 188.394C195.248 186.475 199.316 184.488 203.571 182.819C212.253 179.401 221.309 179.002 229.791 181.668C234.319 183.093 238.797 185.47 244.324 189.377C246.43 190.868 248.478 192.426 250.534 193.992C253.761 196.451 257.096 198.983 260.596 201.206C266.425 204.905 273.009 207.113 279.377 209.247C280.922 209.764 282.468 210.281 283.991 210.82L286.608 211.758C290 212.984 293.5 214.254 297.159 215.044L297.799 211.913C294.341 211.167 291.085 209.993 287.635 208.745L284.991 207.793C283.452 207.254 281.893 206.729 280.333 206.205C274.145 204.13 267.741 201.981 262.228 198.481C258.835 196.332 255.558 193.837 252.381 191.422C250.304 189.842 248.219 188.254 246.092 186.748C242.491 184.2 236.978 180.582 230.704 178.618C221.561 175.738 211.793 176.174 202.471 179.836C198.101 181.549 193.983 183.565 189.986 185.507C179.011 190.853 168.661 195.897 155.429 193.755C151.548 193.12 148.68 192.094 146.409 190.514C140.026 186.083 139.279 175.295 142.887 168.605C143.275 168.066 154.38 151.688 148.119 139.696C147.408 138.337 146.093 137.488 144.598 137.429C143.11 137.444 141.787 138.086 140.989 139.349L120.433 172.009C120.103 172.629 113.993 184.584 120.699 191.429C120.699 191.422 120.699 191.422 120.699 191.422C120.678 191.422 127.283 200.719 133.529 208.354C137.892 213.685 141.011 216.927 143.059 218.241Z" fill="#A98C64"/>
<path d="M124.581 233.32L126.737 231.016C124.523 228.83 122.324 226.63 120.117 224.436L116.222 220.552C114.331 218.669 112.427 216.794 110.515 214.933C108.739 213.205 106.878 211.529 105.024 209.86C101.696 206.87 98.2601 203.776 95.3779 200.379C91.008 195.225 89.0386 189.893 89.3764 184.097C89.6855 178.758 91.5039 173.124 94.9395 166.862C102.105 153.837 110.831 141.646 119.154 130.274C119.319 130.053 119.542 130.038 119.643 130.06C119.758 130.075 119.966 130.141 120.06 130.407C123.129 138.773 122.712 147.45 118.91 154.213L118.68 154.62C114.123 162.742 109.818 170.407 109.25 180.095C108.862 186.644 112.908 190.137 116.825 193.512L133.105 207.837L135.132 205.408L118.823 191.06C115.05 187.804 112.067 185.234 112.355 180.287C112.879 171.352 117.012 164.005 121.382 156.222L121.612 155.816C125.882 148.217 126.37 138.544 122.971 129.285C122.503 128.007 121.397 127.099 120.088 126.899C118.788 126.708 117.472 127.269 116.674 128.354C108.287 139.807 99.4892 152.102 92.237 165.29C88.557 171.987 86.6092 178.079 86.2714 183.905C85.8905 190.492 88.1689 196.739 93.0348 202.476C96.0607 206.043 99.5754 209.203 102.975 212.26C104.808 213.907 106.634 215.546 108.38 217.252C110.285 219.105 112.182 220.973 114.065 222.849L117.954 226.726C120.153 228.933 122.36 231.134 124.581 233.32Z" fill="#A98C64"/>
<path d="M133.63 262.236C137.238 262.236 141.018 261.482 144.864 259.947C149.183 258.388 153.568 256.838 157.945 255.295C165.046 252.784 172.147 250.273 179.205 247.63C189.663 243.716 201.523 239.278 213.547 238.695C231.315 237.794 248.356 245.112 264.83 252.156L265.671 252.518C269.868 254.305 274.044 256.085 278.191 257.702L279.291 254.711C275.173 253.101 271.033 251.344 266.864 249.564L266.023 249.21C249.24 242.025 231.918 234.582 213.396 235.505C200.89 236.118 188.801 240.644 178.135 244.632C171.091 247.268 164.004 249.771 156.924 252.274C152.54 253.825 148.156 255.376 143.778 256.956C133.572 261.025 124.343 259.179 117.76 251.772C114.676 248.309 111.629 244.802 108.581 241.294C100.258 231.71 91.6476 221.8 82.383 212.843L81.8511 212.326C79.7236 210.273 77.7111 208.331 76.2233 205.991C72.6152 200.312 73.1974 193.888 73.8227 187.08C73.9377 185.81 74.0527 184.547 74.1461 183.277L78.6024 119.559C78.6455 118.984 79.0695 118.725 79.1989 118.666C79.393 118.57 79.7667 118.452 80.1477 118.725C90.6198 126.117 90.4761 138.817 90.3323 151.097L90.246 169.454L93.3582 169.469L93.4445 151.127C93.5882 138.618 93.7464 124.433 81.9086 116.074C80.6939 115.232 79.1845 115.114 77.8477 115.771C76.5036 116.436 75.6052 117.795 75.4974 119.316L71.0411 183.033C70.9549 184.274 70.8399 185.522 70.7249 186.762C70.078 193.814 69.4096 201.102 73.6142 207.719C75.3105 210.384 77.553 212.548 79.7236 214.638L80.2555 215.154C89.4123 224.015 97.9798 233.873 106.26 243.406C109.314 246.921 112.369 250.443 115.46 253.914C120.347 259.407 126.665 262.236 133.63 262.236Z" fill="#A98C64"/>
<path d="M122.755 263.956C125.515 263.956 128.253 263.424 130.898 262.125L129.554 259.245C121.871 263.033 112.484 258.831 104.937 255.442L104.384 255.198C98.0373 252.068 91.3673 249.217 84.9201 246.456C82.0164 245.215 79.1126 243.975 76.2305 242.705C74.4336 241.914 72.608 241.22 70.7752 240.534C68.3817 239.625 65.9021 238.695 63.5661 237.536C59.3687 235.453 55.2143 232.98 51.2109 230.188C45.5112 226.223 40.0343 221.682 34.73 217.288C31.1722 214.342 27.6216 211.403 23.9775 208.597L3.62978 192.913C3.25603 192.625 3.05478 192.138 3.11228 191.621C3.14103 191.4 3.27041 190.838 3.87415 190.58C12.4847 186.873 20.9875 190.558 28.8794 195.106C34.3275 198.245 39.7397 201.649 44.9578 205.23C46.7475 206.456 48.494 207.77 50.2334 209.092C53.4318 211.499 56.7309 213.988 60.303 215.922C65.1761 218.573 69.9917 220.124 74.6133 220.545C77.3733 220.788 80.1908 220.619 82.9076 220.441C84.0289 220.368 85.1501 220.294 86.257 220.257L86.142 217.059C85.0064 217.104 83.8636 217.178 82.7136 217.244C80.1117 217.407 77.4236 217.584 74.8792 217.347C70.6746 216.971 66.2543 215.538 61.7477 213.094C58.384 211.263 55.1784 208.841 52.0734 206.508C50.2837 205.164 48.5012 203.82 46.6756 202.572C41.3856 198.954 35.9087 195.498 30.3959 192.323C21.8213 187.383 12.5279 183.388 2.66666 187.641C1.20761 188.269 0.215714 189.613 0.0216522 191.245C-0.179596 192.884 0.496033 194.516 1.78259 195.505L22.1088 211.167C25.7241 213.951 29.2459 216.867 32.775 219.792C38.1297 224.222 43.664 228.808 49.4571 232.854C53.5899 235.734 57.8809 238.289 62.2077 240.438C64.6802 241.663 67.2389 242.623 69.7043 243.561C71.4796 244.233 73.2549 244.898 75.0014 245.666C77.8908 246.936 80.8017 248.184 83.7126 249.431C90.1239 252.171 96.7579 255.014 103.076 258.13L103.672 258.403C109.429 260.936 116.15 263.956 122.755 263.956Z" fill="#A98C64"/>
<path d="M61.9056 216.432L64.4643 214.616C63.8965 213.766 64.5434 211.647 65.4274 210.746C67.0158 209.114 70.1855 209.543 72.4352 210.001L73.0461 210.111C73.7433 210.237 75.5905 210.576 75.9786 210.997L78.2427 208.797C77.2364 207.704 75.4683 207.305 73.5996 206.958L73.0533 206.855C70.0993 206.257 65.8802 205.769 63.2352 208.479C61.6181 210.141 60.2165 213.921 61.9056 216.432Z" fill="#A98C64"/>
<path d="M297.051 215.044C292.609 214.032 288.361 212.4 284.063 210.872C282.144 210.192 282.971 207.039 284.904 207.726C289.195 209.247 293.443 210.879 297.892 211.898C299.883 212.349 299.042 215.494 297.051 215.044Z" fill="#A98C64"/>
<path d="M266.698 249.461C270.838 251.226 274.978 252.983 279.169 254.63C281.059 255.368 280.24 258.522 278.328 257.776C274.145 256.129 269.997 254.379 265.857 252.607C263.996 251.817 264.808 248.656 266.698 249.461Z" fill="#A98C64"/>
<path d="M135.836 206.168C138.481 209.38 141.234 213.131 144.691 215.479C146.387 216.631 144.799 219.452 143.088 218.293C139.372 215.775 136.432 211.935 133.586 208.472C132.278 206.877 134.513 204.566 135.836 206.168Z" fill="#A98C64"/>
<path d="M116.264 220.552C119.772 224.038 123.265 227.545 126.78 231.023C128.253 232.478 126.011 234.782 124.537 233.327C121.015 229.856 117.522 226.349 114.022 222.856C112.548 221.394 114.791 219.09 116.264 220.552Z" fill="#A98C64"/>
<path d="M165.118 139.497C166.218 139.497 167.159 138.78 167.468 137.687C170.537 126.877 176.014 107.693 177.912 101.417C181.124 103.455 188.183 107.353 192.323 109.606C193.3 110.137 194.493 109.945 195.262 109.126C196.031 108.313 196.168 107.095 195.622 106.106C193.343 102.044 188.096 92.6369 185.998 88.4722C188.693 88.0439 193.02 87.2612 193.02 87.2612C196.225 86.737 199.841 86.0724 203.456 85.4078L218.384 81.5533C219.52 81.2653 220.282 80.2168 220.246 79.0132C220.21 77.8169 219.376 76.8274 218.233 76.6059L186.378 70.4845C186.033 70.3294 185.573 69.879 185.329 69.2809C185.085 68.668 185.099 67.996 185.379 67.3905L188.333 60.922C188.571 60.3018 190.957 54.8892 193.084 50.1191C193.523 49.1222 193.314 48.0072 192.56 47.254C191.805 46.4935 190.691 46.3162 189.749 46.7962L175.209 54.0474C174.706 51.5811 173.865 47.0399 172.895 41.8119L172.499 39.7074C172.147 37.8688 170.559 29.1481 168.223 16.2407C168.014 15.074 167.094 14.247 165.952 14.1805C164.794 14.1067 163.788 14.8229 163.443 15.9601L151.843 53.8333L135.951 42.9195C135.074 42.3067 133.91 42.351 133.069 43.0229C132.228 43.6949 131.897 44.8394 132.257 45.8732L140.393 69.7682C140.616 70.455 140.537 71.2155 140.177 71.8358C139.818 72.4413 139.236 72.8474 138.524 72.9656L113.224 77.337C112.038 77.5437 111.197 78.5406 111.169 79.7737C111.147 81.0069 111.945 82.048 113.117 82.3065L144.777 89.314L136.08 105.271C135.585 106.194 135.678 107.309 136.325 108.121C136.972 108.926 138 109.236 138.977 108.926L155.559 103.536L162.703 137.495C162.94 138.647 163.874 139.452 165.032 139.504C165.053 139.497 165.082 139.497 165.118 139.497ZM177.538 97.8427C177.265 97.8427 176.992 97.8944 176.726 97.9904C176 98.2562 175.439 98.8469 175.202 99.6075C173.7 104.459 168.51 122.609 165.197 134.269L158.434 102.155C158.29 101.454 157.859 100.855 157.262 100.494C156.665 100.139 155.939 100.058 155.285 100.272L139.581 105.382L147.904 90.1041C148.285 89.4026 148.321 88.5535 148.005 87.8224C147.681 87.0914 147.034 86.5523 146.272 86.3899L117.055 79.9214L139.027 76.1186C140.616 75.8527 142.003 74.8928 142.83 73.4898C143.67 72.0647 143.843 70.3368 143.325 68.7345L135.815 46.6928L150.815 57.0011C151.462 57.4515 152.267 57.5549 153 57.2891C153.733 57.0232 154.308 56.4177 154.538 55.6498L161.567 32.4858L161.682 32.6408L162.494 29.7019L165.621 19.4675C168.417 34.9078 169.222 39.3308 169.56 40.7264L169.509 40.7412L169.819 42.4174C170.918 48.3543 171.86 53.405 172.327 55.5907C172.499 56.3513 172.981 56.9789 173.671 57.3112C174.361 57.6435 175.144 57.6435 175.827 57.2964L189.483 50.4883C188.111 53.5896 185.595 59.2606 185.458 59.6741L182.548 66.0319C181.901 67.4422 181.865 69.0667 182.44 70.5066C183.015 71.9244 184.143 73.0394 185.552 73.5563L214.762 79.1904L202.852 82.2696C199.302 82.9194 195.708 83.5765 192.495 84.1082C192.466 84.1156 187.083 85.0829 184.653 85.4447C183.877 85.5555 183.187 86.0502 182.821 86.7665C182.454 87.4754 182.447 88.3393 182.799 89.063C184.316 92.2381 188.988 100.663 191.791 105.692C187.298 103.226 181.139 99.7847 178.882 98.2562C178.479 97.9904 178.012 97.8427 177.538 97.8427ZM135.175 44.8099C135.182 44.8099 135.182 44.8173 135.175 44.8099V44.8099Z" fill="#A98C64"/>
<path d="M222.229 289.003C241.262 289.003 269.343 278.783 297.878 260.109C341.527 231.569 367.301 195.638 356.57 178.322C348.312 165.009 320.971 166.84 286.895 182.974C284.329 184.193 281.734 185.485 279.125 186.851L280.541 189.701C283.114 188.35 285.666 187.08 288.196 185.884C320.274 170.695 346.688 168.354 353.94 180.043C363.413 195.313 336.977 230.757 296.21 257.421C255.443 284.093 213.008 293.707 203.535 278.429C201.573 275.254 201.098 271.148 202.14 266.208C202.608 263.993 203.384 261.608 204.448 259.127L201.594 257.842C200.451 260.515 199.61 263.107 199.1 265.536C197.885 271.325 198.489 276.236 200.911 280.149C204.627 286.138 212.16 289.003 222.229 289.003Z" fill="#A98C64"/>
<path d="M288.347 185.832C285.753 187.065 283.187 188.35 280.635 189.679C278.817 190.632 277.207 187.818 279.032 186.866C281.584 185.536 284.15 184.252 286.744 183.019C288.592 182.14 290.202 184.953 288.347 185.832Z" fill="#A98C64"/>
<path d="M204.39 259.304C203.441 261.571 202.687 263.897 202.148 266.304C201.695 268.35 198.633 267.486 199.086 265.44C199.682 262.752 200.588 260.197 201.644 257.665C202.449 255.737 205.188 257.399 204.39 259.304Z" fill="#A98C64"/>
<path d="M234.65 149.856C235.656 149.856 236.533 149.192 236.82 148.202L238.761 141.52C239.76 138.101 242.34 135.45 245.668 134.423L252.166 132.422C253.129 132.134 253.783 131.234 253.783 130.192C253.783 129.151 253.129 128.258 252.158 127.962L245.675 125.961C242.347 124.942 239.767 122.291 238.768 118.865L236.827 112.19C236.245 110.204 233.076 110.204 232.486 112.183V112.19L230.546 118.865C229.547 122.284 226.966 124.935 223.638 125.961L217.141 127.962C216.178 128.25 215.524 129.151 215.524 130.192C215.524 131.234 216.178 132.127 217.141 132.422L223.638 134.423C226.966 135.443 229.547 138.093 230.546 141.52L232.486 148.195C232.774 149.192 233.643 149.856 234.65 149.856ZM248.55 130.207L244.777 131.366C240.443 132.696 237.072 136.151 235.778 140.604L234.65 144.488L233.521 140.604C232.227 136.144 228.864 132.688 224.53 131.366L220.749 130.207L224.53 129.048C228.864 127.719 232.227 124.263 233.521 119.81L234.65 115.926L235.778 119.81C237.072 124.27 240.443 127.726 244.777 129.048L248.55 130.207ZM251.26 131.034L251.267 131.042C251.267 131.042 251.267 131.034 251.26 131.034ZM218.025 129.365C218.032 129.365 218.032 129.365 218.025 129.365V129.365ZM251.274 129.365H251.267C251.274 129.365 251.274 129.365 251.274 129.365Z" fill="#A98C64"/>
<path d="M87.7736 39.1461C88.7799 39.1461 89.6567 38.4815 89.9442 37.492L91.8848 30.8094C92.8839 27.3906 95.4642 24.7323 98.792 23.7133L105.289 21.7195C106.253 21.4316 106.907 20.5381 106.907 19.4969C106.914 18.4631 106.26 17.5623 105.289 17.2595L98.792 15.2658C95.4642 14.2468 92.8839 11.5959 91.8848 8.16967L89.9442 1.49442C89.3621 -0.491909 86.1924 -0.499293 85.603 1.48704V1.49442L83.6624 8.16967C82.6633 11.5885 80.083 14.2394 76.7552 15.2658L70.2577 17.2595C69.2874 17.5623 68.6406 18.4558 68.6406 19.4969C68.6406 20.5381 69.2946 21.4316 70.2649 21.7195L76.7552 23.7133C80.083 24.7323 82.6633 27.3906 83.6624 30.8094L85.603 37.4847C85.8977 38.4815 86.7746 39.1461 87.7736 39.1461ZM101.681 19.4895L97.9008 20.6488C93.5667 21.978 90.203 25.4338 88.9092 29.8938L87.7808 33.7778L86.6524 29.8938C85.3586 25.4338 81.9949 21.978 77.6609 20.6488L73.8802 19.4895L77.6609 18.3302C81.9949 17.0011 85.3586 13.5453 86.6524 9.09269L87.7808 5.20864L88.9092 9.09269C90.203 13.5527 93.5667 17.0085 97.9008 18.3302L101.681 19.4895ZM71.1562 18.6551C71.1562 18.6551 71.1634 18.6551 71.1634 18.6625L71.1562 18.6551ZM104.405 18.6551H104.398C104.405 18.6551 104.405 18.6551 104.405 18.6551Z" fill="#A98C64"/>
<path d="M75.9928 99.3496C78.8031 99.3496 81.4049 97.666 82.6196 95.0668C83.1012 94.0404 83.3384 92.9475 83.3384 91.803H80.2262C80.2262 92.4676 80.0896 93.0952 79.8093 93.6786C79.0978 95.2071 77.6315 96.1522 75.9856 96.1522C73.6496 96.1522 71.7521 94.2028 71.7521 91.7956C71.7521 88.8272 74.9362 86.6489 77.5956 87.7713L78.7671 84.8102C77.8831 84.441 76.9415 84.249 75.9856 84.249C71.9318 84.249 68.64 87.631 68.64 91.7956C68.6471 95.9602 71.939 99.3496 75.9928 99.3496Z" fill="#A98C64"/>
<path d="M79.6877 93.9366C79.9896 93.1908 80.1549 92.6222 80.198 91.7952C80.313 89.7054 83.4899 89.6981 83.3749 91.7952C83.3174 92.8585 83.1521 93.811 82.7496 94.8005C81.9805 96.713 78.9043 95.8712 79.6877 93.9366Z" fill="#A98C64"/>
<path d="M77.7684 87.8592C77.2078 87.6155 76.6113 87.4826 76.0003 87.4752C73.9734 87.3423 73.9591 84.0786 76.0003 84.2115C76.9203 84.2705 77.7325 84.4035 78.6166 84.7136C80.5356 85.3782 79.7091 88.5312 77.7684 87.8592Z" fill="#A98C64"/>
<path d="M238.107 64.9243C240.917 64.9243 243.519 63.2407 244.734 60.6415C245.215 59.6151 245.459 58.5222 245.459 57.3777H242.347C242.347 58.0349 242.204 58.6625 241.93 59.2533C241.226 60.7522 239.731 61.727 238.107 61.727C235.771 61.727 233.873 59.7775 233.873 57.3777C233.873 54.4093 237.036 52.2236 239.709 53.346L240.881 50.3849C239.997 50.0157 239.055 49.8237 238.099 49.8237C234.046 49.8237 230.754 53.213 230.754 57.3777C230.754 61.5423 234.053 64.9243 238.107 64.9243Z" fill="#A98C64"/>
<path d="M241.801 59.5113C242.103 58.7655 242.268 58.1969 242.311 57.3699C242.426 55.2801 245.603 55.2728 245.488 57.3699C245.431 58.4332 245.265 59.3857 244.863 60.3752C244.087 62.2877 241.018 61.4533 241.801 59.5113Z" fill="#A98C64"/>
<path d="M239.875 53.4417C239.314 53.1981 238.717 53.0652 238.107 53.0578C236.08 52.9249 236.065 49.6611 238.107 49.794C239.026 49.8531 239.839 49.986 240.723 50.2961C242.649 50.9607 241.822 54.1137 239.875 53.4417Z" fill="#A98C64"/>
</g>
<defs>
<clipPath id="clip0_801_1034">
<rect width="359" height="289" fill="white" transform="matrix(-1 0 0 1 359 0.00292969)"/>
</clipPath>
</defs>
</svg>
