<svg width="20" height="20" viewBox="0 0 20 20" fill="none" xmlns="http://www.w3.org/2000/svg">
<path d="M13.2 10.0029C13.2 10.6358 13.0123 11.2545 12.6607 11.7808C12.3091 12.307 11.8093 12.7171 11.2246 12.9593C10.6399 13.2015 9.99645 13.2649 9.37571 13.1414C8.75497 13.018 8.18479 12.7132 7.73726 12.2657C7.28973 11.8181 6.98496 11.248 6.86149 10.6272C6.73801 10.0065 6.80138 9.36307 7.04359 8.77834C7.28579 8.19362 7.69594 7.69385 8.22218 7.34223C8.74841 6.99061 9.3671 6.80293 10 6.80293C10.8484 6.80391 11.6618 7.14137 12.2617 7.74127C12.8616 8.34117 13.199 9.15454 13.2 10.0029ZM20 5.60293V14.4029C19.9983 15.8876 19.4078 17.311 18.3579 18.3609C17.3081 19.4107 15.8847 20.0012 14.4 20.0029H5.6C4.11531 20.0012 2.69191 19.4107 1.64207 18.3609C0.592236 17.311 0.00169389 15.8876 0 14.4029V5.60293C0.00169389 4.11824 0.592236 2.69484 1.64207 1.645C2.69191 0.595166 4.11531 0.00462358 5.6 0.00292969H14.4C15.8847 0.00462358 17.3081 0.595166 18.3579 1.645C19.4078 2.69484 19.9983 4.11824 20 5.60293ZM14.8 10.0029C14.8 9.05358 14.5185 8.12555 13.9911 7.33619C13.4636 6.54684 12.714 5.93161 11.8369 5.56831C10.9598 5.20501 9.99468 5.10995 9.06357 5.29516C8.13246 5.48037 7.27718 5.93753 6.60589 6.60882C5.9346 7.28011 5.47744 8.13539 5.29223 9.0665C5.10702 9.99761 5.20208 10.9627 5.56538 11.8398C5.92868 12.7169 6.54391 13.4666 7.33326 13.994C8.12262 14.5214 9.05065 14.8029 10 14.8029C11.2726 14.8015 12.4927 14.2953 13.3925 13.3955C14.2924 12.4956 14.7986 11.2755 14.8 10.0029ZM16.4 4.80293C16.4 4.56559 16.3296 4.33358 16.1978 4.13625C16.0659 3.93891 15.8785 3.7851 15.6592 3.69427C15.4399 3.60345 15.1987 3.57968 14.9659 3.62599C14.7331 3.67229 14.5193 3.78658 14.3515 3.9544C14.1837 4.12222 14.0694 4.33604 14.0231 4.56882C13.9768 4.8016 14.0005 5.04288 14.0913 5.26215C14.1822 5.48142 14.336 5.66884 14.5333 5.80069C14.7307 5.93255 14.9627 6.00293 15.2 6.00293C15.5183 6.00293 15.8235 5.8765 16.0485 5.65146C16.2736 5.42641 16.4 5.12119 16.4 4.80293Z" fill="#FAF6F2"/>
</svg>
